<?xml version="1.0" encoding="utf-8"?><svg xmlns="http://www.w3.org/2000/svg" xmlns:xlink="http://www.w3.org/1999/xlink"><symbol viewBox="0 0 24 24" id="a11y" xmlns="http://www.w3.org/2000/svg"><path d="M12 2.11c-5.457 0-9.89 4.433-9.89 9.89 0 5.457 4.433 9.89 9.89 9.89 5.457 0 9.89-4.433 9.89-9.89 0-5.457-4.433-9.89-9.89-9.89zm0 .86A9.024 9.024 0 0 1 21.03 12 9.024 9.024 0 0 1 12 21.03 9.024 9.024 0 0 1 2.97 12 9.024 9.024 0 0 1 12 2.97zm0 1.29c-.946 0-1.72.774-1.72 1.72S11.054 7.7 12 7.7s1.72-.774 1.72-1.72-.774-1.72-1.72-1.72zm0 .86c.48 0 .86.38.86.86s-.38.86-.86.86-.86-.38-.86-.86.38-.86.86-.86zM6.76 7.458a1.12 1.12 0 0 0-.982.753 1.13 1.13 0 0 0 .686 1.41l3.386 1.21v2.835L8.775 17.98a1.076 1.076 0 0 0 1.035 1.33c.46 0 .876-.3 1.02-.74L12 15.065l1.17 3.507c.144.438.56.739 1.02.739.689 0 1.201-.662 1.035-1.33l-1.075-4.314v-2.835l3.386-1.21a1.13 1.13 0 0 0 .686-1.41c-.194-.58-.845-.892-1.425-.7l-3.13 1.049h-3.333L7.203 7.512a1.115 1.115 0 0 0-.444-.054zm.053.86a.3.3 0 0 1 .108.014l3.225 1.061.067.027h3.574l.067-.027 3.225-1.061a.247.247 0 0 1 .323.16.252.252 0 0 1-.161.323l-3.669 1.304-.282.094v3.56l1.102 4.408c.037.146-.052.269-.202.269a.226.226 0 0 1-.215-.148l-1.532-4.569v-.04a.43.43 0 0 0-.362-.457h-.014a.433.433 0 0 0-.067-.013h-.013a.433.433 0 0 0-.068.013.433.433 0 0 0-.067.014.43.43 0 0 0-.295.457l-1.532 4.595a.226.226 0 0 1-.215.148c-.15 0-.239-.123-.202-.269l1.102-4.407v-3.561l-.282-.094-3.669-1.304a.252.252 0 0 1-.16-.322.242.242 0 0 1 .214-.175z"/></symbol><symbol viewBox="0 0 24 24" id="american-football" xmlns="http://www.w3.org/2000/svg"><g fill="none"><path d="M18.32 7.373c2.195 7.69-4.924 14.809-12.614 12.614-2.213-7.69 4.906-14.809 12.614-12.614z"/><path stroke="currentColor" stroke-linecap="round" stroke-linejoin="round" stroke-miterlimit="5" stroke-width="1.26" d="M11.233 17.706c-2.12 1.026-4.631 1.336-7.207.601h0c-1.313-4.565.661-8.929 4.096-11.262m3.074-1.413a10.135 10.135 0 0 1 5.444.06h0c1.145 4.011-.243 7.866-2.925 10.325m-5.161-2.242 3.532-3.533m.128 1.14-1.268-1.267m-.002 2.518-1.248-1.249m.002 2.514L8.43 12.63M18.93 17.25h-3.36m4.62-2.94h-1.68M4.227 13.068 7.66 16.5m4.974-9.369 3.814 3.814"/></g></symbol><symbol viewBox="0 0 512 512" id="devices" xmlns="http://www.w3.org/2000/svg"><path d="M111.189 460.8h-.094c-4.702 0-8.482 3.823-8.482 8.533s3.857 8.533 8.576 8.533c4.71 0 8.533-3.823 8.533-8.533s-3.822-8.533-8.533-8.533zm136.278 17.067h17.067c4.719 0 8.533-3.823 8.533-8.533s-3.814-8.533-8.533-8.533h-17.067c-4.719 0-8.533 3.823-8.533 8.533s3.814 8.533 8.533 8.533zm119.466-102.4H247.467c-4.719 0-8.533 3.823-8.533 8.533s3.814 8.533 8.533 8.533h119.467c4.719 0 8.533-3.823 8.533-8.533s-3.815-8.533-8.534-8.533z"/><path d="M196.267 221.867H25.6c-14.114 0-25.6 11.486-25.6 25.6V486.4C0 500.514 11.486 512 25.6 512h170.667c14.114 0 25.6-11.486 25.6-25.6V247.467c0-14.114-11.486-25.6-25.6-25.6zM204.8 486.4c0 4.702-3.823 8.533-8.533 8.533H25.6c-4.71 0-8.533-3.831-8.533-8.533V247.467c0-4.702 3.823-8.533 8.533-8.533h170.667c4.71 0 8.533 3.831 8.533 8.533V486.4zm128-25.6h-25.6v-42.667c0-4.71-3.814-8.533-8.533-8.533s-8.533 3.823-8.533 8.533v51.2a8.53 8.53 0 0 0 8.533 8.533H332.8c16.051 0 22.059 9.481 24.294 17.067H247.467c-4.719 0-8.533 3.823-8.533 8.533s3.814 8.533 8.533 8.533h119.467a8.53 8.53 0 0 0 8.533-8.533c0-14.753-8.918-42.666-42.667-42.666zM256 358.4c9.412 0 17.067-7.654 17.067-17.067 0-9.412-7.654-17.067-17.067-17.067-9.404 0-17.067 7.654-17.067 17.067S246.596 358.4 256 358.4zm230.4-68.267h-68.267c-14.114 0-25.6 11.486-25.6 25.6V486.4c0 14.114 11.486 25.6 25.6 25.6H486.4c14.114 0 25.6-11.486 25.6-25.6V315.733c0-14.114-11.486-25.6-25.6-25.6zm8.533 196.267c0 4.702-3.823 8.533-8.533 8.533h-68.267c-4.71 0-8.533-3.831-8.533-8.533V315.733c0-4.702 3.823-8.533 8.533-8.533H486.4c4.71 0 8.533 3.831 8.533 8.533V486.4z"/><path d="M469.333 0H42.667C19.14 0 0 19.14 0 42.667v153.6c0 4.71 3.814 8.533 8.533 8.533s8.533-3.823 8.533-8.533v-153.6c0-14.114 11.486-25.6 25.6-25.6h426.667c14.114 0 25.6 11.486 25.6 25.6v221.867a8.53 8.53 0 0 0 8.533 8.533 8.53 8.53 0 0 0 8.533-8.533V42.667C512 19.14 492.86 0 469.333 0zm-16.81 460.8h-.094c-4.702 0-8.482 3.823-8.482 8.533s3.857 8.533 8.576 8.533c4.71 0 8.533-3.823 8.533-8.533s-3.823-8.533-8.533-8.533zm-85.59-170.667H247.467c-4.719 0-8.533 3.823-8.533 8.533s3.814 8.533 8.533 8.533h119.467c4.719 0 8.533-3.823 8.533-8.533s-3.815-8.533-8.534-8.533z"/><path d="M452.267 85.333a8.509 8.509 0 0 0 6.033-2.5 8.523 8.523 0 0 0 0-12.066L441.233 53.7a8.523 8.523 0 0 0-12.066 0 8.525 8.525 0 0 0 0 12.066l17.067 17.067a8.509 8.509 0 0 0 6.033 2.5zm0 51.2a8.509 8.509 0 0 0 6.033-2.5 8.523 8.523 0 0 0 0-12.066L390.033 53.7a8.523 8.523 0 0 0-12.066 0 8.525 8.525 0 0 0 0 12.066l68.267 68.267a8.509 8.509 0 0 0 6.033 2.5z"/></symbol><symbol viewBox="0 0 24 24" id="email" xmlns="http://www.w3.org/2000/svg"><circle cx="12" cy="12" r="10" fill="none" stroke="currentColor"/><path d="M16.5 8h-9A1.5 1.5 0 0 0 6 9.5v5A1.5 1.5 0 0 0 7.5 16h9a1.5 1.5 0 0 0 1.5-1.5v-5A1.5 1.5 0 0 0 16.5 8Zm-.37 1L12 11.4 7.87 9h8.26Zm.37 6h-9a.5.5 0 0 1-.5-.5v-5l4.88 3.15a.75.75 0 0 0 .74 0L17 9.5v5a.5.5 0 0 1-.5.5Z"/></symbol><symbol viewBox="0 0 24 24" id="git" xmlns="http://www.w3.org/2000/svg"><path d="M12 2.97c.244 0 .472.094.643.267l8.12 8.12a.908.908 0 0 1 0 1.286l-8.12 8.12a.898.898 0 0 1-.643.267.898.898 0 0 1-.643-.267l-8.12-8.12a.908.908 0 0 1 0-1.286l5.298-5.298.977.978a2.571 2.571 0 0 0 .664 2.487c.158.158.337.294.534.407v4.14A2.576 2.576 0 0 0 12 18.88a2.576 2.576 0 0 0 1.29-4.809v-3.257l.522.523A2.571 2.571 0 0 0 16.3 14.58a2.582 2.582 0 0 0 1.824-4.404 2.549 2.549 0 0 0-1.816-.753c-.226 0-.453.03-.671.09l-1.15-1.15a2.571 2.571 0 0 0-3.15-3.15l-.978-.978.998-.998A.898.898 0 0 1 12 2.97m0-.86a1.76 1.76 0 0 0-1.251.519L9.143 4.235l1.987 1.987c.27-.158.574-.239.878-.239.437 0 .874.167 1.208.5.566.567.648 1.427.26 2.085l1.954 1.954c.27-.158.574-.239.878-.239.437 0 .874.167 1.208.5a1.72 1.72 0 1 1-2.432 2.433 1.717 1.717 0 0 1-.26-2.086L12.87 9.176c-.14.083-.287.143-.44.182v5.282a1.715 1.715 0 0 1-.43 3.38 1.715 1.715 0 0 1-.43-3.38V9.358a1.7 1.7 0 0 1-.786-.442 1.715 1.715 0 0 1-.26-2.084l-1.99-1.99L2.63 10.75a1.768 1.768 0 0 0 0 2.502l8.12 8.12A1.76 1.76 0 0 0 12 21.89a1.76 1.76 0 0 0 1.251-.519l8.12-8.12a1.768 1.768 0 0 0 0-2.502l-8.12-8.12A1.76 1.76 0 0 0 12 2.11z"/></symbol><symbol viewBox="0 0 50 50" id="github" xmlns="http://www.w3.org/2000/svg"><path d="M25 2C12.311 2 2 12.311 2 25s10.311 23 23 23 23-10.311 23-23S37.689 2 25 2zm0 2c11.607 0 21 9.393 21 21 0 .071-.005.142-.006.213a39.758 39.758 0 0 0-2.318-.149 59.326 59.326 0 0 0-4.903.061c.07-.49.12-.988.122-1.498.096-1.873-.532-3.625-1.555-5.172.247-.854.537-1.94.61-3.172.082-1.404-.04-2.961-1.167-4.013l-.289-.27H36.1c-2.683 0-4.52 1.123-5.643 2.014A15.026 15.026 0 0 0 25 12a15.82 15.82 0 0 0-5.553 1.018C18.325 12.127 16.487 11 13.801 11h-.393l-.289.268c-1.098 1.02-1.2 2.534-1.13 3.931.06 1.233.333 2.353.575 3.248-1.04 1.578-1.664 3.375-1.664 5.153 0 .511.048 1.01.118 1.502-1.806-.084-3.416-.1-4.694-.055-.94.033-1.679.089-2.318.148 0-.065-.006-.13-.006-.195C4 13.393 13.393 4 25 4zm-10.604 9.13c2.018.192 3.536 1.093 4.239 1.718l.469.414.578-.237C21.263 14.375 23.027 14 25 14c1.973 0 3.737.376 5.2 1.016l.585.257.479-.425c.703-.625 2.223-1.526 4.242-1.717.268.445.501 1.078.445 2.035-.067 1.146-.374 2.394-.605 3.135l-.15.482.298.408c.99 1.35 1.494 2.81 1.408 4.354l-.002.027v.028c0 2.495-.898 4.492-2.812 5.972C32.174 31.052 29.153 32 24.9 32c-4.252 0-7.275-.948-9.19-2.428-1.913-1.48-2.81-3.477-2.81-5.972 0-1.465.53-3.076 1.506-4.409l.293-.398-.14-.475c-.232-.788-.516-2.064-.573-3.216-.047-.96.18-1.565.41-1.971zM8.885 26.022c.706.01 1.516.048 2.328.088.077.312.166.619.273.918-3.307.07-5.781.403-7.306.688-.065-.5-.116-1.005-.145-1.516a44.845 44.845 0 0 1 4.85-.178zm32.23.016c2.133-.027 3.72.071 4.848.178-.029.503-.08 1-.143 1.494-1.58-.29-4.12-.622-7.513-.676.105-.293.193-.595.27-.9a64.2 64.2 0 0 1 2.538-.096zM11.912 28.02a9.029 9.029 0 0 0 2.576 3.134c1.54 1.192 3.544 2.024 5.989 2.469-.32.329-.611.69-.87 1.07l-.06-.052c.005-.007-.497.245-1.248.312S16.622 35 15.8 35c-1.225 0-1.765-.579-2.627-1.633a7.098 7.098 0 0 0-1.625-1.56c-.579-.406-1.073-.691-1.684-.793L9.783 31H9.7c-.466 0-.918.034-1.34.516-.21.24-.356.687-.261 1.064.094.378.333.61.547.752 1.366.911 1.608 2.715 2.464 4.318.8 1.594 2.527 2.35 4.291 2.35H18v4.803c-7.032-2.482-12.335-8.598-13.668-16.1 1.53-.288 4.095-.635 7.58-.683zm25.97.007c3.564.03 6.2.377 7.788.67C44.339 36.202 39.034 42.32 32 44.803V39.6c0-1.585-.52-3.332-1.426-4.79a7.52 7.52 0 0 0-.959-1.236c2.315-.457 4.217-1.275 5.698-2.42a9.004 9.004 0 0 0 2.57-3.127zM23.7 34.1H26.5c.813 0 1.68.647 2.375 1.765C29.57 36.983 30 38.485 30 39.6v5.798a21.078 21.078 0 0 1-10 0V39.6c0-1.091.468-2.589 1.209-3.711.741-1.123 1.677-1.79 2.49-1.79zM12.31 35.28C13.174 36.18 14.223 37 15.8 37c.779 0 1.751.028 2.676-.055l.01-.002c-.122.35-.213.703-.29 1.057H15.4c-1.233 0-2.104-.446-2.505-1.248l-.008-.014-.006-.011c-.165-.306-.38-.916-.572-1.446z"/></symbol><symbol viewBox="0 0 512 512" id="html" xmlns="http://www.w3.org/2000/svg"><path d="M437.333 213.333c5.888 0 10.667-4.779 10.667-10.667v-128c0-29.397-23.915-53.333-53.333-53.333H53.333C23.915 21.333 0 45.269 0 74.667v362.667c0 29.397 23.915 53.333 53.333 53.333h341.333c29.419 0 53.333-23.936 53.333-53.333v-64c0-5.888-4.779-10.667-10.667-10.667s-10.667 4.779-10.667 10.667v64c0 17.643-14.357 32-32 32H53.333c-17.643 0-32-14.357-32-32V128h405.333v74.667c.001 5.888 4.779 10.666 10.667 10.666zm-416-106.666v-32c0-17.643 14.357-32 32-32h341.333c17.643 0 32 14.357 32 32v32H21.333z"/><circle cx="53.333" cy="74.667" r="10.667"/><circle cx="96" cy="74.667" r="10.667"/><circle cx="138.667" cy="74.667" r="10.667"/><path d="M224 234.667c-5.888 0-10.667 4.779-10.667 10.667v32h-42.667v-32c0-5.888-4.779-10.667-10.667-10.667s-10.667 4.779-10.667 10.667v85.333c0 5.888 4.779 10.667 10.667 10.667s10.667-4.779 10.667-10.667v-32h42.667v32c0 5.888 4.779 10.667 10.667 10.667s10.667-4.779 10.667-10.667v-85.333c0-5.889-4.779-10.667-10.667-10.667zm85.333 0h-42.667c-5.888 0-10.667 4.779-10.667 10.667S260.779 256 266.667 256h10.667v74.667c0 5.888 4.779 10.667 10.667 10.667s10.667-4.779 10.667-10.667V256h10.667c5.888 0 10.667-4.779 10.667-10.667s-4.781-10.666-10.669-10.666zm110.742.832c-3.968-1.685-8.555-.768-11.627 2.304L384 262.251l-24.448-24.469c-3.051-3.029-7.659-3.947-11.627-2.304a10.667 10.667 0 0 0-6.592 9.856v85.333c0 5.888 4.779 10.667 10.667 10.667s10.667-4.779 10.667-10.667v-59.584l13.803 13.781c4.16 4.16 10.923 4.16 15.083 0l13.781-13.781v59.584c0 5.888 4.779 10.667 10.667 10.667s10.667-4.779 10.667-10.645v-85.333a10.668 10.668 0 0 0-6.593-9.857zM501.333 320h-32v-74.667c0-5.888-4.779-10.667-10.667-10.667S448 239.445 448 245.333v85.333c0 5.888 4.779 10.667 10.667 10.667h42.667c5.888 0 10.667-4.779 10.667-10.667S507.221 320 501.333 320z"/></symbol><symbol viewBox="0 0 50 50" id="linkedin" xmlns="http://www.w3.org/2000/svg"><path d="M25 2C12.31 2 2 12.31 2 25s10.31 23 23 23 23-10.31 23-23S37.69 2 25 2zm0 2c11.61 0 21 9.39 21 21s-9.39 21-21 21S4 36.61 4 25 13.39 4 25 4zm-9 8c-1.645 0-3 1.355-3 3s1.355 3 3 3 3-1.355 3-3-1.355-3-3-3zm0 2c.564 0 1 .436 1 1s-.436 1-1 1-1-.436-1-1 .436-1 1-1zm-2 5a1 1 0 0 0-1 1v15a1 1 0 0 0 1 1h4a1 1 0 0 0 1-1V20a1 1 0 0 0-1-1h-4zm8 0a1 1 0 0 0-1 1v15a1 1 0 0 0 1 1h4a1 1 0 0 0 1-1v-7.5a2.501 2.501 0 0 1 5 0V35a1 1 0 0 0 1 1h4a1 1 0 0 0 1-1v-8.5c0-4.13-3.37-7.5-7.5-7.5-1.286 0-2.44.416-3.5.99a1 1 0 0 0-1-.99h-4zm-7 2h2v13h-2V21zm8 0h2v.816a1 1 0 0 0 1.693.721A5.464 5.464 0 0 1 30.5 21c3.05 0 5.5 2.45 5.5 5.5V34h-2v-6.5c0-2.47-2.03-4.5-4.5-4.5S25 25.03 25 27.5V34h-2V21z"/></symbol><symbol viewBox="0 0 32 32" id="prettier" xmlns="http://www.w3.org/2000/svg"><path d="M11.427 31.24c0 .422-.339.76-.76.76h-7.62c-1.016 0-1.016-1.526 0-1.526h7.62c.422 0 .76.344.76.766zm-.76-3.813H9.141c-1.016 0-1.016 1.526 0 1.526h1.526c1.016 0 1.016-1.526 0-1.526zm-7.62 1.526h3.047c1.016 0 1.016-1.526 0-1.526H3.047c-1.016 0-1.016 1.526 0 1.526zm7.62-4.573h-7.62c-1.016 0-1.016 1.526 0 1.526h7.62c1.016 0 1.016-1.526 0-1.526zm10.666-3.047H7.619c-1.016 0-1.016 1.526 0 1.526h13.714c1.016 0 1.016-1.526 0-1.526zM3.047 22.859h1.526c1.016 0 1.016-1.526 0-1.526H3.047c-1.016 0-1.016 1.526 0 1.526zm22.859-4.573h-4.573c-1.016 0-1.016 1.521 0 1.521h4.573c1.016 0 1.016-1.521 0-1.521zm-13.713 1.521h6.094c1.016 0 1.016-1.521 0-1.521h-6.094c-1.016 0-1.016 1.521 0 1.521zm-9.146 0h6.094c1.016 0 1.016-1.521 0-1.521H3.047c-1.016 0-1.016 1.521 0 1.521zm24.38-4.567H15.239c-1.016 0-1.016 1.521 0 1.521h12.188c1.016 0 1.016-1.521 0-1.521zM12.953 16a.76.76 0 0 0-.76-.76H7.62c-1.016 0-1.016 1.521 0 1.521h4.573a.76.76 0 0 0 .76-.76zm-9.906.76h1.526c1.016 0 1.016-1.521 0-1.521H3.047c-1.016 0-1.016 1.521 0 1.521zm25.906-4.567h-7.62c-1.016 0-1.016 1.521 0 1.521h7.62c1.016 0 1.016-1.521 0-1.521zM3.047 13.714h7.62c1.016 0 1.016-1.521 0-1.521h-7.62c-1.016 0-1.016 1.521 0 1.521zm17.526-3.808c0 .417.339.76.76.76h7.62c1.016 0 1.016-1.526 0-1.526h-7.62a.762.762 0 0 0-.76.766zM9.141 9.141c-1.016 0-1.016 1.526 0 1.526h1.526c1.016 0 1.016-1.526 0-1.526zm-6.094 1.526h3.047c1.016 0 1.016-1.526 0-1.526H3.047c-1.016 0-1.016 1.526 0 1.526zm22.094-3.808c0 .417.344.76.766.76h1.521c1.016 0 1.016-1.526 0-1.526h-1.521a.762.762 0 0 0-.76.766zm-1.521 0a.766.766 0 0 0-.76-.766h-6.099c-1.016 0-1.016 1.526 0 1.526h6.094a.766.766 0 0 0 .766-.76zM3.047 7.62h10.667c1.016 0 1.016-1.526 0-1.526H3.047c-1.016 0-1.016 1.526 0 1.526zm6.859-3.813c0 .422.339.766.76.766h15.24c1.016 0 1.016-1.526 0-1.526h-15.24a.76.76 0 0 0-.76.76zm-6.859.766H7.62c1.016 0 1.016-1.526 0-1.526H3.047c-1.016 0-1.016 1.526 0 1.526zm0-3.047h18.286c1.016 0 1.016-1.526 0-1.526H3.047c-1.016 0-1.016 1.526 0 1.526z"/></symbol><symbol xml:space="preserve" viewBox="0 0 182.788 182.788" id="print" xmlns="http://www.w3.org/2000/svg"><path d="M34.246 156.254h114.296v10.605H34.246z"/><path d="M157.896 71.86V36.823a5 5 0 0 0-5-5h-11.043V10.928a5 5 0 0 0-5-5H45.935a5 5 0 0 0-5 5v20.895H29.246a5 5 0 0 0-5 5v35.116C10.6 73.631 0 85.29 0 99.387v72.473a5 5 0 0 0 5 5h172.788a5 5 0 0 0 5-5V99.387c0-14.319-10.934-26.131-24.892-27.527zM50.935 15.928h80.919V71.72H50.935V15.928zm-9.406 80.827c5.106 0 9.262 4.155 9.262 9.261s-4.155 9.261-9.262 9.261-9.262-4.155-9.262-9.261 4.156-9.261 9.262-9.261zm107.013 49.499H34.246v-10.605h114.296v10.605zM119.371 32.041h-54a5 5 0 1 1 0-10h54a5 5 0 1 1 0 10zm0 16.551h-54a5 5 0 1 1 0-10h54a5 5 0 1 1 0 10zm-9.516 16.552H65.371a5 5 0 1 1 0-10h44.484a5 5 0 1 1 0 10z"/></symbol><symbol viewBox="0 0 24 24" id="react" xmlns="http://www.w3.org/2000/svg"><path d="M11.103 10.438a1.786 1.786 0 1 0 2.44.654 1.786 1.786 0 0 0-2.44-.654zm8.005 1.938q-.176-.201-.371-.403.136-.144.264-.287c1.605-1.804 2.283-3.614 1.655-4.701-.602-1.043-2.393-1.354-4.636-.918q-.331.065-.659.146-.063-.216-.133-.43C14.467 3.49 13.238 1.999 11.982 2c-1.204 0-2.368 1.397-3.111 3.558q-.11.32-.203.644-.219-.054-.44-.1c-2.366-.485-4.271-.165-4.898.924-.601 1.043.027 2.75 1.528 4.472q.224.255.46.5c-.186.19-.361.381-.525.571-1.465 1.698-2.057 3.376-1.457 4.415.62 1.074 2.498 1.425 4.785.975q.278-.055.553-.124.1.351.221.697C9.635 20.649 10.792 22 11.992 22c1.24 0 2.482-1.453 3.235-3.659.06-.174.115-.355.169-.541q.355.088.715.156c2.203.417 3.952.09 4.551-.95.619-1.075-.02-2.877-1.554-4.63zM4.07 7.452c.386-.67 1.943-.932 3.986-.512q.196.04.399.09a20.464 20.464 0 0 0-.422 2.678A20.887 20.887 0 0 0 5.93 11.4q-.219-.227-.427-.465C4.216 9.461 3.708 8.081 4.07 7.452zm3.887 5.728c-.51-.387-.985-.783-1.416-1.181.43-.396.905-.79 1.415-1.176q-.028.589-.027 1.179 0 .59.028 1.178zm0 3.94a7.237 7.237 0 0 1-2.64.094 1.766 1.766 0 0 1-1.241-.657c-.365-.63.111-1.978 1.364-3.43q.236-.273.488-.532a20.49 20.49 0 0 0 2.107 1.7 20.802 20.802 0 0 0 .426 2.712q-.25.063-.505.114zm7.1-8.039q-.503-.317-1.018-.613-.508-.292-1.027-.563c.593-.249 1.176-.462 1.739-.635a18.218 18.218 0 0 1 .306 1.811zM9.68 5.835c.636-1.85 1.578-2.98 2.304-2.98.773-.001 1.777 1.218 2.434 3.197q.064.194.12.39a20.478 20.478 0 0 0-2.526.97 20.061 20.061 0 0 0-2.52-.981q.087-.3.188-.596zm-.4 1.424a18.307 18.307 0 0 1 1.73.642q-1.052.542-2.048 1.181c.08-.638.187-1.249.318-1.823zm-.317 7.66q.497.319 1.009.613.522.3 1.057.576a18.196 18.196 0 0 1-1.744.665 19.144 19.144 0 0 1-.322-1.853zm5.456 3.146a7.236 7.236 0 0 1-1.238 2.333 1.766 1.766 0 0 1-1.188.748c-.729 0-1.658-1.085-2.29-2.896q-.112-.321-.206-.648a20.109 20.109 0 0 0 2.53-1.01 20.8 20.8 0 0 0 2.547.979q-.072.249-.155.494zm.362-1.324c-.569-.176-1.16-.393-1.762-.646q.509-.267 1.025-.565.53-.306 1.032-.627a18.152 18.152 0 0 1-.295 1.838zm.447-4.743q0 .911-.057 1.82c-.493.334-1.013.66-1.554.972-.54.311-1.073.597-1.597.856q-.827-.396-1.622-.854-.79-.455-1.544-.969-.07-.91-.07-1.822 0-.911.068-1.821a24.168 24.168 0 0 1 3.158-1.823q.816.397 1.603.851.79.454 1.55.959.065.914.065 1.831zm.956-5.093c1.922-.373 3.37-.122 3.733.507.387.67-.167 2.148-1.554 3.706q-.115.129-.238.259a20.061 20.061 0 0 0-2.144-1.688 20.04 20.04 0 0 0-.405-2.649q.31-.076.608-.135zm-.13 3.885a18.164 18.164 0 0 1 1.462 1.188 18.12 18.12 0 0 1-1.457 1.208q.023-.594.023-1.188 0-.604-.028-1.208zm3.869 5.789c-.364.631-1.768.894-3.653.538q-.324-.061-.664-.146a20.069 20.069 0 0 0 .387-2.682 19.94 19.94 0 0 0 2.137-1.715q.177.183.336.364a7.234 7.234 0 0 1 1.403 2.238 1.766 1.766 0 0 1 .054 1.403z"/></symbol><symbol viewBox="0 0 24 24" stroke="currentColor" fill="none" stroke-linecap="round" stroke-linejoin="round" id="storybook" xmlns="http://www.w3.org/2000/svg"><path d="M0 0h24v24H0z" stroke="none"/><path d="m5 4 .5 16.5L19 21V3z"/><path d="M9 15c.6 1.5 1.639 2 3.283 2H12c1.8 0 3-.974 3-2.435 0-1.194-.831-1.799-2.147-2.333l-1.975-.802C9.728 10.963 9 10.008 9 8.963c0-.97.899-1.786 2.087-1.893l.613-.055c1.528-.138 2.999.762 3.3 1.985m1-5.5v1"/></symbol><symbol viewBox="0 0 50 50" id="telegram" xmlns="http://www.w3.org/2000/svg"><path d="M25 2C12.31 2 2 12.31 2 25s10.31 23 23 23 23-10.31 23-23S37.69 2 25 2zm0 2c11.61 0 21 9.39 21 21s-9.39 21-21 21S4 36.61 4 25 13.39 4 25 4zm9.088 10.035c-.684 0-1.453.159-2.352.483-1.396.503-17.815 7.474-19.683 8.267-1.068.454-3.057 1.299-3.057 3.313 0 1.335.782 2.29 2.322 2.84.828.295 2.795.89 3.936 1.205.484.133.998.2 1.527.2 1.035 0 2.077-.257 2.893-.712-.007.168-.003.338.017.508.123 1.05.77 2.037 1.73 2.642.629.396 5.758 3.833 6.524 4.38 1.076.768 2.266 1.175 3.438 1.175 2.24 0 2.991-2.313 3.353-3.424.525-1.613 2.491-14.73 2.713-17.043.151-1.585-.51-2.89-1.767-3.492a3.645 3.645 0 0 0-1.594-.342zm0 2c.275 0 .52.046.728.147.473.227.714.733.641 1.498-.242 2.523-2.203 15.329-2.621 16.613-.358 1.098-.735 2.043-1.453 2.043-.718 0-1.503-.252-2.276-.805-.773-.552-5.906-3.994-6.619-4.443-.625-.394-1.286-1.376-.355-2.326.767-.782 6.585-6.43 7.082-6.926.37-.371.197-.818-.166-.818-.125 0-.275.052-.43.18-.608.496-9.084 6.168-9.818 6.624-.486.302-1.239.52-2.02.52-.333 0-.67-.04-.994-.13-1.128-.31-3.037-.89-3.795-1.16-.729-.26-.994-.508-.994-.954 0-.634.895-1.072 1.838-1.473.996-.423 18.23-7.742 19.578-8.227.624-.226 1.195-.363 1.674-.363z"/></symbol><symbol viewBox="0 0 24 24" id="validation" xmlns="http://www.w3.org/2000/svg"><path d="M8.596 20.303 6.5 18.207l-2.096 2.096c.584.438 1.31.697 2.096.697s1.512-.26 2.096-.697zm.707-.707c.438-.584.697-1.31.697-2.096s-.26-1.512-.697-2.096L7.207 17.5l2.096 2.096zm-5.606-4.192C3.259 15.988 3 16.714 3 17.5s.26 1.512.697 2.096L5.793 17.5l-2.096-2.096zm.707-.707L6.5 16.793l2.096-2.096A3.484 3.484 0 0 0 6.5 14c-.786 0-1.512.26-2.096.697zM6.5 11a4.5 4.5 0 1 1 0-9 4.5 4.5 0 0 1 0 9zm0-1a3.5 3.5 0 1 0 0-7 3.5 3.5 0 0 0 0 7zm1.11-4.812a.5.5 0 1 1 .78.624l-2 2.5a.5.5 0 0 1-.744.042l-1-1a.5.5 0 1 1 .708-.708l.605.605 1.65-2.063zM13.5 6a.5.5 0 1 1 0-1h8a.5.5 0 1 1 0 1h-8zm0 2a.5.5 0 1 1 0-1h6a.5.5 0 1 1 0 1h-6zm-7 14a4.5 4.5 0 1 1 0-9 4.5 4.5 0 0 1 0 9zm7-5a.5.5 0 1 1 0-1h8a.5.5 0 1 1 0 1h-8zm0 2a.5.5 0 1 1 0-1h6a.5.5 0 1 1 0 1h-6z"/></symbol><symbol viewBox="0 0 24 24" id="webpack" xmlns="http://www.w3.org/2000/svg"><path d="M11.823 1.936h-.01l-.025.005a.325.325 0 0 0-.094.029l-.016.004-8.58 4.62a.33.33 0 0 0-.073.055l-.012.015a.328.328 0 0 0-.065.108.323.323 0 0 0-.023.112v9.901a.328.328 0 0 0 .06.187l.017.02c.024.03.051.057.085.077h.002l.001.002 8.576 4.948h.003l.001.002c.015.008.03.013.046.019.011.004.022.01.033.013a.324.324 0 0 0 .085.012h.001a.332.332 0 0 0 .084-.011c.005-.001.01-.005.016-.006a.334.334 0 0 0 .06-.025l8.91-4.95c.002 0 .002-.002.004-.003l.01-.004a.332.332 0 0 0 .077-.07l.016-.022a.326.326 0 0 0 .046-.09c0-.003.003-.007.004-.011a.328.328 0 0 0 .013-.088v-9.9l-.001-.006a.33.33 0 0 0-.036-.138.325.325 0 0 0-.05-.074c-.005-.006-.008-.013-.014-.018a.326.326 0 0 0-.077-.057l-8.91-4.62c-.014-.007-.028-.01-.042-.015l-.024-.008a.332.332 0 0 0-.098-.013zm.342.872 7.853 4.071-3.228 1.615-4.625-2.467v-3.22zm-.66.01v3.21L6.887 8.49l-2.94-1.603 7.558-4.069zm.33 3.781 4.249 2.266-4.249 2.266-4.249-2.266 4.249-2.266zm8.58.82v8.832l-3.3-1.65V9.07l3.3-1.65zm-16.83.022 2.97 1.62v.794a.33.33 0 1 0 .66 0v-.44l4.29 2.288v5.192l-4.29-2.288v-.792a.33.33 0 1 0-.66 0v.794l-2.97 1.62V7.44zm12.87 1.974v5.39c0 .016.007.03.009.046.003.024.006.048.014.07.008.02.02.036.031.054.011.018.021.037.036.052.016.018.035.03.054.044.014.009.023.022.038.03l3.4 1.7-7.872 4.373v-9.471l4.29-2.288zm-9.57 1.43a.33.33 0 0 0-.33.33v1.32a.33.33 0 1 0 .66 0v-1.32a.33.33 0 0 0-.33-.33zm8.615 3.926a.33.33 0 0 0-.261.485l.31.582a.33.33 0 1 0 .582-.31l-.31-.583a.33.33 0 0 0-.32-.174zm-8.614.41 4.619 2.462v3.52l-7.576-4.37 2.957-1.613zm7.239.324a.33.33 0 0 0-.262.484l.311.583a.331.331 0 0 0 .447.136.33.33 0 0 0 .136-.447l-.311-.583a.331.331 0 0 0-.321-.173zm-1.375.733a.33.33 0 0 0-.262.485l.311.581a.33.33 0 1 0 .582-.31l-.31-.583a.33.33 0 0 0-.32-.173z"/></symbol></svg>