<svg viewBox="0 0 24 24" xmlns="http://www.w3.org/2000/svg"><path d="M12 2.11c-5.45730458 0-9.89 4.43269542-9.89 9.89 0 5.45730458 4.43269542 9.89 9.89 9.89 5.45730458 0 9.89-4.43269542 9.89-9.89 0-5.45730458-4.43269542-9.89-9.89-9.89zm0 .86c4.99203125 0 9.03 4.03796875 9.03 9.03 0 4.99203125-4.03796875 9.03-9.03 9.03-4.99203125 0-9.03-4.03796875-9.03-9.03 0-4.99203125 4.03796875-9.03 9.03-9.03zm0 1.29c-.94566417 0-1.72.77433583-1.72 1.72S11.05433583 7.7 12 7.7s1.72-.77433583 1.72-1.72-.77433583-1.72-1.72-1.72zm0 .86c.48039084 0 .86.37960959.86.86 0 .48039084-.37960916.86-.86.86-.48039041 0-.86-.37960916-.86-.86 0-.48039041.37960959-.86.86-.86zM6.759375 7.458125c-.43671875.03359375-.83648416.31746083-.9809375.7525-.19148416.57277333.11757834 1.20769542.6853125 1.4109375L9.85 10.8309375V13.66625l-1.075 4.3134375C8.60871083 18.64820334 9.12101584 19.31 9.8096875 19.31c.46023459 0 .87679709-.30066417 1.02125-.7390625L12 15.06375l1.1690625 3.5071875c.14445334.43839833.56101584.7390625 1.02125.7390625.68867209 0 1.20097667-.66179666 1.0346875-1.3303125L14.15 13.66625v-2.8353125l3.38625-1.209375c.56773459-.20324208.87679709-.83816417.6853125-1.4109375-.19316417-.57949208-.84488292-.89191417-1.424375-.69875L13.66625 8.56h-3.3325L7.2028125 7.511875c-.14445291-.04871083-.29730458-.06550792-.4434375-.05375zm.05375.86c.03359375-.00167958.07222667.00167958.1075.0134375l3.225 1.0615625.0671875.026875h3.574375l.0671875-.026875 3.225-1.0615625c.13941417-.04703125.27546875.02183583.3225.16125.04535167.13773459-.02519542.27378917-.16125.3225L13.5721875 10.11875 13.29 10.2128125V13.77375l1.101875 4.4075c.03695334.14613292-.05207042.26875-.2015625.26875-.0940625 0-.18644542-.05878917-.215-.1478125l-1.531875-4.56875v-.0403125c.01679709-.22339833-.14109375-.42328125-.3628125-.456875h-.0134375c-.02183583-.00671875-.04367166-.01007791-.0671875-.0134375h-.0134375c-.02351541.00335959-.04535167.00671875-.0671875.0134375-.02351541.00335959-.04535167.00671875-.0671875.0134375-.19484375.06214833-.31746083.25363292-.295625.456875l-1.531875 4.595625c-.02855458.08902333-.1209375.1478125-.215.1478125-.14949208 0-.23851541-.12261708-.2015625-.26875L10.71 13.77375v-3.5609375l-.2821875-.0940625L6.759375 8.8153125c-.13605458-.04871083-.20660167-.18476541-.16125-.3225.03527333-.10414041.11589833-.16796875.215-.1746875z"/></svg>