<svg xmlns="http://www.w3.org/2000/svg" viewBox="0 0 24 24"><g><path fill="none" d="M18.32016 7.37286c2.1945 7.68978-4.9245 14.80878-12.61428 12.61428-2.21256-7.68978 4.90644-14.80878 12.61428-12.61428z"/><path fill="none" stroke="currentColor" stroke-linecap="round" stroke-linejoin="round" stroke-miterlimit="5" stroke-width="1.26" d="M11.23308 17.7057c-2.11932 1.02648-4.63134 1.33644-7.2072.60144h0c-1.31334-4.56498.6615-8.92878 4.09584-11.2623M11.19612 5.63196c1.6926-.45528 3.55068-.47838 5.44404.0609h0c1.1445 4.01016-.2436 7.86492-2.92488 10.32444M8.55369 13.77471l3.53262-3.53262M12.21357 11.38176l-1.26714-1.26672M10.94433 12.63273l-1.24866-1.24866M9.69777 13.89777l-1.26714-1.26714M18.93 17.25h-3.36M20.19 14.31h-1.68M4.22706 13.06785l3.43308 3.4335M12.63399 7.1322l3.81402 3.8136"/></g></svg>