<svg xmlns="http://www.w3.org/2000/svg" viewBox="0 0 512 512"><path d="M111.189 460.8h-.094c-4.702 0-8.482 3.823-8.482 8.533s3.857 8.533 8.576 8.533c4.71 0 8.533-3.823 8.533-8.533s-3.822-8.533-8.533-8.533zM247.467 477.867h17.067c4.719 0 8.533-3.823 8.533-8.533s-3.814-8.533-8.533-8.533h-17.067c-4.719 0-8.533 3.823-8.533 8.533s3.814 8.533 8.533 8.533zM366.933 375.467H247.467c-4.719 0-8.533 3.823-8.533 8.533s3.814 8.533 8.533 8.533h119.467c4.719 0 8.533-3.823 8.533-8.533s-3.815-8.533-8.534-8.533z"/><path d="M196.267 221.867H25.6c-14.114 0-25.6 11.486-25.6 25.6V486.4C0 500.514 11.486 512 25.6 512h170.667c14.114 0 25.6-11.486 25.6-25.6V247.467c0-14.114-11.486-25.6-25.6-25.6zM204.8 486.4c0 4.702-3.823 8.533-8.533 8.533H25.6c-4.71 0-8.533-3.831-8.533-8.533V247.467c0-4.702 3.823-8.533 8.533-8.533h170.667c4.71 0 8.533 3.831 8.533 8.533V486.4zM332.8 460.8h-25.6v-42.667c0-4.71-3.814-8.533-8.533-8.533s-8.533 3.823-8.533 8.533v51.2c0 4.71 3.814 8.533 8.533 8.533H332.8c16.051 0 22.059 9.481 24.294 17.067H247.467c-4.719 0-8.533 3.823-8.533 8.533s3.814 8.533 8.533 8.533h119.467c4.719 0 8.533-3.823 8.533-8.533 0-14.753-8.918-42.666-42.667-42.666zM256 358.4c9.412 0 17.067-7.654 17.067-17.067 0-9.412-7.654-17.067-17.067-17.067-9.404 0-17.067 7.654-17.067 17.067S246.596 358.4 256 358.4zM486.4 290.133h-68.267c-14.114 0-25.6 11.486-25.6 25.6V486.4c0 14.114 11.486 25.6 25.6 25.6H486.4c14.114 0 25.6-11.486 25.6-25.6V315.733c0-14.114-11.486-25.6-25.6-25.6zm8.533 196.267c0 4.702-3.823 8.533-8.533 8.533h-68.267c-4.71 0-8.533-3.831-8.533-8.533V315.733c0-4.702 3.823-8.533 8.533-8.533H486.4c4.71 0 8.533 3.831 8.533 8.533V486.4z"/><path d="M469.333 0H42.667C19.14 0 0 19.14 0 42.667v153.6c0 4.71 3.814 8.533 8.533 8.533s8.533-3.823 8.533-8.533v-153.6c0-14.114 11.486-25.6 25.6-25.6h426.667c14.114 0 25.6 11.486 25.6 25.6v221.867c0 4.71 3.814 8.533 8.533 8.533 4.719 0 8.533-3.823 8.533-8.533V42.667C512 19.14 492.86 0 469.333 0zM452.523 460.8h-.094c-4.702 0-8.482 3.823-8.482 8.533s3.857 8.533 8.576 8.533c4.71 0 8.533-3.823 8.533-8.533s-3.823-8.533-8.533-8.533zM366.933 290.133H247.467c-4.719 0-8.533 3.823-8.533 8.533s3.814 8.533 8.533 8.533h119.467c4.719 0 8.533-3.823 8.533-8.533s-3.815-8.533-8.534-8.533z"/><path d="M452.267 85.333c2.185 0 4.369-.836 6.033-2.5 3.337-3.337 3.337-8.73 0-12.066L441.233 53.7c-3.337-3.337-8.73-3.337-12.066 0-3.336 3.337-3.336 8.73 0 12.066l17.067 17.067c1.664 1.664 3.848 2.5 6.033 2.5zM452.267 136.533c2.185 0 4.369-.836 6.033-2.5 3.337-3.337 3.337-8.73 0-12.066L390.033 53.7c-3.336-3.337-8.73-3.337-12.066 0-3.336 3.337-3.336 8.73 0 12.066l68.267 68.267c1.664 1.664 3.848 2.5 6.033 2.5z"/></svg>