<svg viewBox="0 0 24 24" xmlns="http://www.w3.org/2000/svg"><path d="M12 2.97c.24355458 0 .47199208.0940625.64332042.26707042l8.11960916 8.11960916c.35609375.35441417.35609375.93222667 0 1.28664084l-8.11960916 8.11960916C12.47199208 20.9359375 12.24355458 21.03 12 21.03c-.24355458 0-.47199208-.0940625-.64332042-.26707042l-8.11960916-8.11960916c-.35609375-.35441417-.35609375-.93222667 0-1.28664084l5.29773416-5.29773416.97757834.97757791c-.23515625.8734375.00167958 1.82582042.66347667 2.48761751.15789041.15789041.33761708.29394499.53414041.40648416v4.14042958C9.92726584 14.52289084 9.42 15.36441417 9.42 16.3c0 1.42269542 1.15730458 2.58 2.58 2.58 1.42269542 0 2.58-1.15730458 2.58-2.58 0-.93558583-.50726541-1.77710916-1.29-2.22894542v-3.25691374l.52238292.52238249c-.23515625.8734375.00167958 1.82582042.66347667 2.48761751C14.96296875 14.31125 15.61132834 14.58 16.3 14.58c.68867209 0 1.33703125-.26875 1.82414084-.75585916 1.00613249-1.00613292 1.00613249-2.64214876 0-3.64828125-.48543001-.48543001-1.12875-.7525-1.81574251-.7525-.22675749 0-.45351541.03023416-.671875.08902333l-1.14890625-1.14890625c.23515625-.8734375-.00167958-1.82582042-.66347624-2.48761708-.48543001-.48543001-1.12875-.7525-1.81574251-.7525-.22675749 0-.45351541.03023416-.671875.08902333l-.97757791-.97757834.99773416-.99773416C11.52800792 3.0640625 11.75644542 2.97 12 2.97m0-.86c-.45351541 0-.90703125.17300792-1.25136708.51902333L9.14285167 4.23480458 11.12992209 6.221875c.27042958-.15789041.57445291-.23851541.87847624-.23851541.43671875 0 .8734375.16628874 1.20769542.50054666.56605458.56605458.64835959 1.42605458.26035167 2.08449208l1.95347667 1.95347667c.27042958-.15789041.57445291-.23851541.87847624-.23851541.43671875 0 .8734375.16628874 1.20769542.50054666.671875.671875.671875 1.7603125 0 2.4321875C17.18015625 13.55203125 16.74007834 13.72 16.3 13.72c-.44007791 0-.88015625-.16796875-1.21609375-.50390625-.56605458-.56605458-.64835916-1.42605458-.26035167-2.08617166l-1.95347624-1.95347667c-.13941417.08230458-.28722667.14277333-.44007834.18140625v5.28261708c.74074208.19148459 1.29.85832042 1.29 1.65953125 0 .95070334-.76929666 1.72-1.72 1.72-.94902333 0-1.72-.76929666-1.72-1.72 0-.80121083.54925792-1.46804666 1.29-1.65953125V9.35785167c-.28722667-.07390625-.56101541-.21667958-.78609375-.44175792-.56605458-.56605458-.64835916-1.42605458-.26035167-2.08449208l-1.98875-1.98875-5.90578125 5.90578125c-.69203125.69035167-.69203125 1.81238292 0 2.50273416l8.11960959 8.11960959C11.09296875 21.71699208 11.54648459 21.89 12 21.89c.45351584 0 .90703125-.17300792 1.25136708-.51902333l8.11960959-8.11960959c.69203125-.69035124.69203125-1.81238249 0-2.50273416l-8.11960959-8.11960959C12.90703125 2.28300792 12.45351584 2.11 12 2.11z"/></svg>