<svg xmlns="http://www.w3.org/2000/svg" viewBox="0 0 50 50"><path d="M25 2C12.311335 2 2 12.311335 2 25s10.311335 23 23 23 23-10.311335 23-23S37.688665 2 25 2zm0 2c11.607335 0 21 9.392665 21 21 0 .071371-.005151.141688-.005859.212891-.639614-.059038-1.378633-.115115-2.31836-.148438-1.328718-.047117-3.003522-.033466-4.902343.060547.070414-.490349.119767-.987623.121093-1.498047.09683-1.872621-.53201-3.624489-1.554687-5.171875.247069-.853726.536903-1.93986.609375-3.171875.0826-1.404278-.03862-2.961438-1.166016-4.013672L36.494141 11h-.394532c-2.68307 0-4.519586 1.12321-5.642578 2.013672C28.835529 12.386022 27.01222 12 25 12c-2.023633 0-3.864475.391416-5.552734 1.017578C18.324911 12.126691 16.486785 11 13.800781 11h-.392578l-.289062.267578c-1.098185 1.019743-1.199363 2.534181-1.13086 3.931641.06041 1.232287.333451 2.352923.576172 3.248047-1.039964 1.577594-1.664062 3.374752-1.664062 5.152343 0 .511628.047578 1.010462.117187 1.501953-1.8057607-.083754-3.4154784-.099894-4.6933592-.054687-.9397045.033243-1.6787766.088838-2.3183594.148437C4.0052628 25.129972 4 25.065482 4 25 4 13.392665 13.392665 4 25 4zm-10.603516 9.130859c2.017583.191184 3.535511 1.092113 4.238282 1.716797l.46875.414063.578125-.236328C21.263092 14.374205 23.026984 14 25 14c1.973016 0 3.737393.376076 5.199219 1.015625l.585937.257813.478516-.425782c.703011-.624898 2.223512-1.526102 4.242187-1.716797.268397.444982.501627 1.077809.445313 2.035157-.0674 1.145721-.373868 2.393642-.605469 3.134765l-.150391.482422.298829.408203c.989475 1.349285 1.49398 2.809531 1.408203 4.353516l-.001953.027344v.027343c0 2.495455-.898611 4.49273-2.8125 5.972657C32.174048 31.052199 29.152663 32 24.900391 32c-4.252273 0-7.275564-.947808-9.189453-2.427734-1.913891-1.479927-2.810547-3.477202-2.810547-5.972657 0-1.464706.528917-3.07601 1.505859-4.408203l.292969-.398437-.140625-.47461c-.231728-.787875-.515769-2.064256-.572266-3.216797-.04699-.958622.179893-1.564535.410156-1.970703zM8.8847656 26.021484c.7066919.009026 1.5166944.047172 2.3281254.087891.077528.311797.165931.618523.273437.917969-3.307356.069748-5.7815971.40233-7.3066405.6875-.0644807-.50035-.1158392-1.004823-.1445313-1.515625 1.1270496-.106957 2.715841-.204986 4.8496094-.177735zm32.2304684.015625c2.132293-.027076 3.720494.071047 4.847657.177735-.028657.503484-.079142 1.00082-.142579 1.49414-1.579542-.289774-4.120638-.622296-7.513671-.675781.105304-.293526.192986-.594984.269531-.900391.895119-.047979 1.768392-.085916 2.539062-.095703zm-29.203125 1.982422c.59674 1.195796 1.449407 2.263488 2.576172 3.134766 1.540544 1.191234 3.543342 2.023541 5.988281 2.46875-.319863.328651-.610782.689548-.86914 1.070312l-.060547-.052734c.0055-.0063-.497125.245253-1.248047.3125C17.547906 35.020374 16.621615 35 15.800781 35c-1.225 0-1.764571-.57879-2.626953-1.632812-.477545-.643628-1.059727-1.164857-1.625-1.560547-.578807-.405166-1.072569-.691132-1.6835936-.792969L9.7832031 31h-.0839843c-.4666667 0-.9182353.03379-1.3398438.515625-.2108043.240919-.356098.686936-.2617188 1.064453.094379.377517.3332001.609503.546875.751953 1.3667228.911149 1.6082638 2.71448 2.4648438 4.31836C11.909298 39.244315 13.635662 40 15.400391 40H18v4.802734c-7.032189-2.482199-12.3353205-8.598121-13.6679688-16.099609 1.5309026-.288349 4.0945075-.635017 7.5800778-.683594zm25.970703.007813c3.562726.030496 6.198238.376717 7.78711.669922C44.339047 36.201504 39.034072 42.31987 32 44.802734v-5.203125c0-1.584568-.520358-3.331897-1.425781-4.789062-.274897-.442412-.598274-.860811-.958985-1.236328 2.315219-.457379 4.21713-1.275398 5.697266-2.419922 1.124324-.86939 1.975088-1.933873 2.570312-3.126953zm-14.183593 6.072265H26.5c.812821 0 1.680423.647791 2.375 1.765625.694577 1.117835 1.125 2.618943 1.125 3.734375v5.798829C28.397408 45.789234 26.72379 46 25 46c-1.72379 0-3.397408-.210766-5-.601562v-5.798829c0-1.09074.467828-2.588302 1.208984-3.710937.741157-1.122635 1.677414-1.789063 2.490235-1.789063zM12.308594 35.28125C13.174368 36.179258 14.222525 37 15.800781 37c.779167 0 1.751703.028073 2.675781-.054688.003286-.000294.00648-.001658.009766-.001953-.121748.350002-.212584.70217-.289062 1.056641h-2.796875c-1.233334 0-2.104621-.44557-2.50586-1.248047l-.007812-.013672-.00586-.011719c-.164402-.305371-.380214-.915972-.572265-1.445312z"/></svg>