<svg xmlns="http://www.w3.org/2000/svg" viewBox="0 0 50 50"><path d="M25 2C12.309295 2 2 12.309295 2 25s10.309295 23 23 23 23-10.309295 23-23S37.690705 2 25 2zm0 2c11.609824 0 21 9.390176 21 21s-9.390176 21-21 21S4 36.609824 4 25 13.390176 4 25 4zm-9 8c-1.64501 0-3 1.35499-3 3s1.35499 3 3 3 3-1.35499 3-3-1.35499-3-3-3zm0 2c.564129 0 1 .435871 1 1s-.435871 1-1 1-1-.435871-1-1 .435871-1 1-1zm-2 5a1.0001 1.0001 0 0 0-1 1v15a1.0001 1.0001 0 0 0 1 1h4a1.0001 1.0001 0 0 0 1-1V20a1.0001 1.0001 0 0 0-1-1h-4zm8 0a1.0001 1.0001 0 0 0-1 1v15a1.0001 1.0001 0 0 0 1 1h4a1.0001 1.0001 0 0 0 1-1v-7.5c0-1.379545 1.120455-2.5 2.5-2.5s2.5 1.120455 2.5 2.5V35a1.0001 1.0001 0 0 0 1 1h4a1.0001 1.0001 0 0 0 1-1v-8.5c0-4.13039-3.36961-7.5-7.5-7.5-1.286472 0-2.440256.41615-3.5.990234A1.0001 1.0001 0 0 0 26 19h-4zm-7 2h2v13h-2V21zm8 0h2v.816406a1.0001 1.0001 0 0 0 1.693359.720703C27.684186 21.585305 29.016683 21 30.5 21c3.04961 0 5.5 2.45039 5.5 5.5V34h-2v-6.5c0-2.470455-2.029545-4.5-4.5-4.5S25 25.029545 25 27.5V34h-2V21z"/></svg>