<svg xmlns="http://www.w3.org/2000/svg" xml:space="preserve" viewBox="0 0 182.788 182.788"><path d="M34.246 156.254h114.296v10.605H34.246z"/><path d="M157.896 71.86V36.823c0-2.761-2.238-5-5-5h-11.043V10.928c0-2.761-2.238-5-5-5H45.935c-2.762 0-5 2.239-5 5v20.895H29.246c-2.762 0-5 2.239-5 5v35.116C10.6 73.631 0 85.29 0 99.387v72.473c0 2.761 2.238 5 5 5h172.788c2.762 0 5-2.239 5-5V99.387c0-14.319-10.934-26.131-24.892-27.527zM50.935 15.928h80.919V71.72H50.935V15.928zm-9.406 80.827c5.106 0 9.262 4.155 9.262 9.261s-4.155 9.261-9.262 9.261-9.262-4.155-9.262-9.261 4.156-9.261 9.262-9.261zm107.013 49.499H34.246v-10.605h114.296v10.605zM119.371 32.041h-54c-2.762 0-5-2.239-5-5s2.238-5 5-5h54c2.762 0 5 2.239 5 5s-2.238 5-5 5zm0 16.551h-54c-2.762 0-5-2.239-5-5s2.238-5 5-5h54c2.762 0 5 2.239 5 5s-2.238 5-5 5zm-9.516 16.552H65.371c-2.762 0-5-2.239-5-5s2.238-5 5-5h44.484c2.762 0 5 2.239 5 5s-2.238 5-5 5z"/></svg>