<svg xmlns="http://www.w3.org/2000/svg" viewBox="0 0 50 50"><path d="M25 2C12.309288 2 2 12.309297 2 25s10.309288 23 23 23 23-10.309297 23-23S37.690712 2 25 2zm0 2c11.609833 0 21 9.390175 21 21s-9.390167 21-21 21S4 36.609825 4 25 13.390167 4 25 4zm9.087891 10.035156c-.684 0-1.452563.158422-2.351563.482422-1.396.503-17.815594 7.474578-19.683594 8.267578-1.068.454-3.0566402 1.2985-3.0566402 3.3125 0 1.335.7822656 2.289844 2.3222652 2.839844.828.295 2.794547.891078 3.935547 1.205078.484.133.998344.201172 1.527344.201172 1.035 0 2.076578-.257891 2.892578-.712891-.007.168-.002422.337813.017578.507813.123 1.05.770469 2.037578 1.730469 2.642578.628.396 5.757437 3.832906 6.523437 4.378906 1.076001.769 2.265501 1.175782 3.4375 1.175782 2.240001 0 2.991516-2.312829 3.353516-3.423829.525-1.613 2.490891-14.729968 2.712891-17.042968.151-1.585-.509578-2.890188-1.767578-3.492188-.471-.227-1.00875-.341797-1.59375-.341797zm0 2c.275 0 .520515.045485.728515.146485.473.227.713625.733047.640625 1.498047-.242 2.522999-2.203093 15.329281-2.621093 16.613281-.358 1.098-.735125 2.042969-1.453126 2.042969-.717999 0-1.50239-.251688-2.27539-.804688-.773-.552-5.906141-3.994359-6.619141-4.443359-.625-.394-1.286468-1.376172-.355469-2.326172.767-.782 6.585032-6.428781 7.082032-6.925781.37-.371.196984-.81836-.166016-.81836-.125 0-.274687.052688-.429687.179688-.608.497-9.08436 6.169-9.81836 6.625-.486.302-1.238531.519531-2.019531.519531-.333 0-.670141-.039906-.994141-.128906-1.128-.311-3.036922-.890157-3.794921-1.160157-.729-.26-.994141-.509078-.994141-.955078 0-.634.894891-1.071656 1.837891-1.472656.996-.423 18.230124-7.741563 19.578124-8.226562.624-.226 1.194829-.363282 1.673829-.363282z"/></svg>