<svg viewBox="0 0 24 24" xmlns="http://www.w3.org/2000/svg"><path d="M11.82339852 1.93564452c-.00346896.00011804-.00684882.00106194-.0103125.00128908-.00855492.00055585-.0165924.00327793-.02513676.0045117-.0323961.00466026-.06335703.01410149-.09345699.0283594-.00519354.00244818-.01099461.0017684-.01611324.0045117L3.0983789 6.59431653c-.02747458.01488564-.05175997.03354714-.07347655.05478495-.00452057.00440682-.00733893.01016565-.01160158.01482426-.02156117.02364351-.03897016.0499719-.05285154.07863273-.00469917.00964986-.00913269.01885389-.01289063.02900403-.01326778.03579081-.02245112.07281087-.0225586.11214852V16.785c0 .0291225.0042797.05829648.01160155.08572278.0098939.03668049.0274531.07018671.0489844.1011912.00503501.00729168.0104642.01371975.01611328.020625.02404845.02935449.05140908.05611914.08507812.07605477.00059173.00035277.00134003.00029568.0019336.00064449.00054685.00031977.0007397.00097185.00128905.00128898l8.57613273 4.94806653c.00041415.00024453.00087384.00040161.00128931.00064449.00041712.00024618.00087087.00040062.00128898.00064449L11.67 22.02052722c.01491798.00859221.03086325.01329867.04640625.01933602.01098405.00426096.02157969.01049334.03287097.01353528h.00064482c.02811633.00754545.05609208.01160148.08443347.01160148H11.835c.02802195 0 .05641779-.00379005.08378898-.01095699.00559779-.00147411.01059927-.00468039.01611324-.00644523.02052963-.00656733.04124472-.01380357.06058602-.02449227l8.91-4.95c.00138633-.00077088.00185196-.00243507.00322278-.00322278.00306537-.00175329.0066462-.00200904.00966801-.00386727.03031875-.01887171.05568189-.04361511.07798824-.0702537.00577731-.0069069.01031052-.01396131.01546875-.02126949.01963731-.02764707.03538128-.057189.04576176-.08959005.00134871-.00422499.003333-.00797082.00451176-.01224597C21.06993219 16.8443967 21.075 16.81511943 21.075 16.785v-9.9c0-.00229218-.00124278-.00416427-.00128898-.00644523-.00088407-.03641913-.0092301-.07117242-.02126949-.10441431-.00423522-.01171236-.00870012-.02246475-.01417977-.03351546-.01334322-.02710059-.03004419-.05159154-.05027352-.07412097-.00497871-.00553608-.00819687-.01221528-.01353528-.01740255-.02279673-.02217567-.04823709-.04164237-.07734342-.05671875l-8.91-4.61999993c-.0136158-.00707138-.02830443-.01042701-.04253931-.01546875-.00809985-.00288642-.01554828-.00612985-.02384745-.0083789-.03184995-.00860063-.06468957-.01400098-.09732426-.01289063zM12.165 2.8076953l7.85296875 4.07150396L16.79015625 8.49375 12.165 6.02712903V2.8076953zm-.66.0103125v3.20912123l-4.61806653 2.4627537L3.9478711 6.88693347 11.505 2.8180078zm.33 3.78146498L16.08375 8.865 11.835 11.13052722 7.58625 8.865 11.835 6.59947278zm8.58.81984375v8.83201143l-3.3-1.65V9.06867204l3.3-1.64935551zm-16.83.02191398l2.97 1.61970699V9.855c0 .18249.14784.33.33.33.18216 0 .33-.14751.33-.33v-.43957023l4.29 2.2874412v5.19169926l-4.29-2.2874412V13.815c0-.18249-.14784-.33-.33-.33-.18216 0-.33.14751-.33.33v.7940625l-2.97 1.61970699V7.44123051zm12.87 1.97419926V14.805c0 .01648581.00669405.0305745.00902352.04640625.00346599.02375076.00571692.04722135.01417944.06960921.00755172.01990659.01986171.0362967.0309375.05414079.01112892.01815297.02081112.03635016.03544926.05220699.01597497.01727055.03547038.02964489.05478528.0431838.01333068.009372.02301057.0221397.03802722.02964819l3.40054704 1.70027352L12.165 21.17425773v-9.47138676l4.29-2.2874412zM6.885 10.845c-.18216 0-.33.14751-.33.33v1.32c0 .18249.14784.33.33.33.18216 0 .33-.14751.33-.33v-1.32c0-.18249-.14784-.33-.33-.33zm8.61544926 3.92648454c-.042735.00385143-.08525847.01649472-.1256838.03802722-.16071.0858-.22212597.28530546-.13599597.44601546l.31066398.58265625c.0594.11121.17351829.17466801.29132829.17466801.05214 0 .10550199-.01227171.15533199-.03867171.16071-.0858.22148148-.28595028.13535148-.44666028l-.31066398-.58265625c-.06435-.120285-.19212699-.18493398-.32033199-.1733787zm-8.61416028.40863273L11.505 17.64287097v3.52107426l-7.57646485-4.37121069 2.95775383-1.61261727zm7.23873051.32484375c-.04272477.00378972-.08534097.01601523-.12568347.03738273-.16071.0858-.2217963.28595028-.1359963.44666028l.31066431.58265625c.05973.11121.17416245.17466768.29197245.17466768.05214 0 .1048575-.01260171.1546875-.03867171.16071-.0858.2217963-.28595028.1359963-.44666028l-.31066431-.58265625c-.0645975-.120285-.1928025-.18474819-.32097648-.1733787zm-1.37478495.73283199c-.04276107.00385176-.0852588.01649472-.1256838.03802722-.16104.0858-.22179597.28595028-.13599597.44666028l.31066398.58201176c.0594.11121.17351829.17466801.29132829.17466801.05214 0 .10550199-.01227204.15533199-.03867204.16071-.0858.22148148-.28594995.13535148-.44666028l-.31066398-.58265592c-.0641025-.12028533-.19204977-.18493431-.32033199-.17337903z"/></svg>